<svg width="550" height="436" viewBox="0 0 550 436" fill="none" xmlns="http://www.w3.org/2000/svg">
<path opacity="0.7" d="M549 383.834L197.578 434L1 343.174M549 383.834V87.5727M549 383.834L363.584 300.477M1 343.174V46.362M1 343.174L363.584 300.477M344.621 291.952L363.584 300.477M402.347 295.913L363.584 300.477M363.584 300.477V0" stroke="#2AEF11" stroke-width="2"/>
<path d="M98.1649 128.848C104.683 124.53 111.609 121.349 118.335 118.458C124.24 115.92 128.912 113.51 132.79 111.306C141.196 106.527 145.868 102.715 151.279 100.661C151.612 100.535 151.948 100.415 152.287 100.302C155.061 99.3803 160.579 97.8122 167.696 96.1122C173.208 94.7954 179.68 93.3993 186.576 92.1632C191.361 91.3056 196.351 90.5249 201.367 89.9011C208.073 89.0672 214.826 88.5135 221.201 88.4307C221.874 88.422 222.547 88.4085 223.218 88.3903C228 88.2611 232.73 87.8989 237.337 87.3851C252.343 85.7112 266.043 82.4274 275.996 80.3404C279.691 79.5655 282.87 78.9556 285.408 78.6544C288.82 78.2494 294.748 77.5507 301.544 76.7799C318.184 74.8925 340.028 72.5721 342.892 73.0679C343.931 73.2477 348.358 75.7889 354.502 79.7018C357.94 81.8912 361.916 84.5101 366.137 87.3851C369.702 89.8134 373.442 92.4245 377.181 95.1138C381.654 98.331 386.125 101.66 390.292 104.923C393.303 107.281 396.156 109.604 398.737 111.824C404.278 116.593 408.563 120.889 410.461 124.045C410.885 124.749 411.291 125.447 411.682 126.14C416.36 134.432 418.866 141.937 424.01 149.882C426.254 153.349 429.001 156.899 432.648 160.635C433.789 161.804 435.017 162.99 436.346 164.198C440.2 167.7 443.575 171.442 446.612 175.371C449.465 179.061 452.021 182.916 454.396 186.893C457.556 192.182 460.396 197.686 463.196 203.303C465.431 207.788 467.639 212.344 469.962 216.92C471.883 220.704 474.836 225.399 478.367 230.524C481.798 235.506 485.775 240.894 489.882 246.249C493.943 251.545 498.13 256.808 502.04 261.612C506.624 267.244 510.828 272.245 514 275.928C502.837 277.808 485.117 281.004 469.962 284.208C456.975 286.954 445.872 289.706 442.397 291.64C441.968 291.878 441.52 292.15 441.052 292.452C432.054 298.266 416.24 315.235 406.764 320.277C405.927 320.722 405.139 321.075 404.41 321.318C402.832 321.845 397.397 323.334 389.283 325.463C384.19 326.799 378.042 328.387 371.13 330.147C365.724 331.523 359.851 333.005 353.65 334.554C343.158 337.174 331.728 339.987 320.033 342.806C314.466 344.148 308.839 345.492 303.225 346.818C296.899 348.312 290.589 349.782 284.4 351.201C278.311 352.597 272.34 353.942 266.583 355.211C260.474 356.557 254.608 357.816 249.103 358.956C242.867 360.246 237.095 361.384 231.958 362.322C227.818 363.077 224.09 363.703 220.865 364.174C218.438 364.528 216.296 364.794 214.478 364.963C211.347 365.369 206.452 362.435 200.687 357.63C196.583 354.211 192.039 349.844 187.376 345.061C183.688 341.277 179.925 337.232 176.248 333.189C172.006 328.525 167.878 323.863 164.109 319.607L164.079 319.572C161.119 316.23 158.382 313.139 155.985 310.494C154.904 309.301 153.783 308.065 152.623 306.791C149.414 303.263 145.918 299.449 142.202 295.487C138.99 292.061 135.613 288.524 132.117 284.965C128.462 281.244 124.676 277.499 120.811 273.833C116.884 270.108 112.875 266.465 108.837 263.009C104.921 259.657 100.977 256.482 97.0537 253.582C95.0634 252.11 93.0785 250.709 91.1054 249.392C89.5662 248.364 87.9939 247.312 86.3991 246.243C82.1704 243.409 77.7835 240.457 73.4337 237.521C69.2597 234.703 65.1198 231.901 61.1868 229.233C57.7396 226.896 54.4513 224.661 51.4381 222.611C46.3 219.115 41.9619 216.154 39 214.127C41.5575 213.136 45.1733 211.021 49.0849 207.592C53.0814 204.089 57.3865 199.214 61.1868 192.764C64.5862 186.994 67.5816 179.965 69.5909 171.53C72.0946 161.02 75.8609 152.729 80.4476 146.042C85.5428 138.613 91.6506 133.163 98.1649 128.848Z" fill="url(#paint0_radial_3647_4305)"/>
<path d="M118.335 118.458C111.609 121.349 104.683 124.53 98.1649 128.848M118.335 118.458L127.075 129.98M118.335 118.458C124.24 115.92 128.912 113.51 132.79 111.306M98.1649 128.848C91.6506 133.163 85.5428 138.613 80.4476 146.042M98.1649 128.848L107.755 140.804M142.202 183.75L153.968 201.907M142.202 183.75L124.05 203.303M142.202 183.75L159.683 171.53M142.202 183.75L129.88 168.388M153.968 201.907L163.717 218.044M153.968 201.907L172.121 191.432M153.968 201.907L133.798 214.127M175.483 237.521L188.257 253.582M175.483 237.521L192.627 228.792M175.483 237.521L159.683 246.599M175.483 237.521L163.717 218.044M188.257 253.582L198.678 268.595M188.257 253.582L169.768 263.009M188.257 253.582L203.72 243.107M198.678 268.595L209.435 291.64M198.678 268.595L215.822 261.612M198.678 268.595L179.853 273.833M209.435 291.64L221.873 318.176M209.435 291.64L192.627 295.131M209.435 291.64L228.933 282.562M221.873 318.176L232.967 330.396M221.873 318.176L238.345 310.494M221.873 318.176L203.72 319.572M232.967 330.396L245.069 343.664M232.967 330.396L214.478 333.189M232.967 330.396L249.103 325.159M245.069 343.664L266.583 355.211M245.069 343.664L225.907 346.108M245.069 343.664L260.532 339.823M266.583 355.211C260.474 356.557 254.608 357.816 249.103 358.956M266.583 355.211C272.34 353.942 278.311 352.597 284.4 351.201M249.103 358.956L225.907 346.108M249.103 358.956C242.867 360.246 237.095 361.384 231.958 362.322M225.907 346.108L214.478 333.189M225.907 346.108L218.848 353.44M225.907 346.108L206.41 343.664M214.478 333.189L203.72 319.572M214.478 333.189H195.989M203.72 319.572L192.627 295.131M203.72 319.572L184.895 322.016M192.627 295.131L179.853 273.833M192.627 295.131L174.138 300.718M179.853 273.833L169.768 263.009M179.853 273.833L161.028 281.514M169.768 263.009L159.683 246.599M169.768 263.009L152.623 273.833M159.683 246.599L148.59 228.792M159.683 246.599L139.849 261.612M148.59 228.792L133.798 214.127M148.59 228.792L130.1 249.392M148.59 228.792L163.717 218.044M133.798 214.127L124.05 203.303M133.798 214.127L115.645 234.378M124.05 203.303L111.948 186.893M124.05 203.303L105.561 224.951M111.948 186.893L101.19 172.927M111.948 186.893L129.88 168.388M111.948 186.893L93.7948 214.127M101.19 172.927L91.1054 158.611M101.19 172.927L83.8779 208.017M101.19 172.927L119.237 155.12M91.1054 158.611L80.4476 146.042M91.1054 158.611L107.755 140.804M91.1054 158.611L73.9611 201.907M80.4476 146.042C75.8609 152.729 72.0946 161.02 69.5909 171.53C67.5816 179.965 64.5862 186.994 61.1868 192.764M231.958 362.322L218.848 353.44M231.958 362.322C227.818 363.077 224.09 363.703 220.865 364.174M218.848 353.44L206.41 343.664M218.848 353.44L205.065 355.211M206.41 343.664L195.989 333.189M206.41 343.664L195.989 346.108M195.989 333.189L184.895 322.016M195.989 333.189L184.472 332.53M184.895 322.016L184.543 321.318M174.138 300.718L161.028 281.514M174.138 300.718L184.543 321.318M174.138 300.718L161.028 305.955M161.028 281.514L152.623 273.833M161.028 281.514L150.27 291.64M152.623 273.833L139.849 261.612M152.623 273.833L139.849 281.514M139.849 261.612L130.1 249.392M139.849 261.612L127.075 270.341M130.1 249.392L115.645 234.378M130.1 249.392L116.654 257.422M115.645 234.378L105.561 224.951M115.645 234.378L103.88 249.392M105.561 224.951L93.7948 214.127M105.561 224.951L93.7948 242.06M93.7948 214.127L82.7013 234.378M93.7948 214.127L83.8779 208.017M73.9611 201.907L61.1868 192.764M73.9611 201.907L83.8779 208.017M73.9611 201.907L59.1699 216.92M61.1868 192.764C57.3865 199.214 53.0814 204.089 49.0849 207.592M49.0849 207.592C45.1733 211.021 41.5575 213.136 39 214.127C41.9619 216.154 46.3 219.115 51.4381 222.611M49.0849 207.592L59.1699 216.92M59.1699 216.92L69.5909 224.951M59.1699 216.92L51.4381 222.611M69.5909 224.951L82.7013 234.378M69.5909 224.951L61.1868 229.233M69.5909 224.951L83.8779 208.017M82.7013 234.378L93.7948 242.06M82.7013 234.378L73.4337 237.521M93.7948 242.06L103.88 249.392M93.7948 242.06L86.3991 246.243M103.88 249.392L116.654 257.422M103.88 249.392L97.0537 253.582M116.654 257.422L127.075 270.341M116.654 257.422L108.837 263.009M127.075 270.341L139.849 281.514M127.075 270.341L120.811 273.833M139.849 281.514L150.27 291.64M139.849 281.514L132.117 284.965M150.27 291.64L161.028 305.955M150.27 291.64L142.202 295.487M161.028 305.955L172.121 318.176M161.028 305.955L152.623 306.791M172.121 318.176L183.551 331.444L184.472 332.53M172.121 318.176L184.543 321.318M172.121 318.176L164.079 319.572M195.989 346.108L205.065 355.211M195.989 346.108L187.376 345.061M195.989 346.108L184.472 332.53M205.065 355.211L220.865 364.174M205.065 355.211L200.687 357.63M220.865 364.174C218.438 364.528 216.296 364.794 214.478 364.963C211.347 365.369 206.452 362.435 200.687 357.63M200.687 357.63C196.583 354.211 192.039 349.844 187.376 345.061M284.4 351.201L260.532 339.823M284.4 351.201C290.589 349.782 296.899 348.312 303.225 346.818M260.532 339.823L249.103 325.159M260.532 339.823L280.702 336.332M249.103 325.159L238.345 310.494M249.103 325.159L267.592 319.572M238.345 310.494L228.933 282.562M238.345 310.494L257.171 305.955M228.933 282.562L215.822 261.612M228.933 282.562L245.069 279.07M215.822 261.612L203.72 243.107M215.822 261.612L235.656 258.819M203.72 243.107L192.627 228.792M203.72 243.107L223.218 239.965M192.627 228.792L181.534 211.683M192.627 228.792L212.797 223.903M181.534 211.683L172.121 191.432M181.534 211.683L163.717 218.044M181.534 211.683L198.342 204.002M172.121 191.432L159.683 171.53M172.121 191.432L188.257 183.75M159.683 171.53L147.581 157.215M159.683 171.53L177.836 165.594M147.581 157.215L136.488 142.201M147.581 157.215L166.742 149.882M147.581 157.215L129.88 168.388M136.488 142.201L127.075 129.98M136.488 142.201L119.237 155.12M136.488 142.201L155.649 135.916M127.075 129.98L143.883 122.997M127.075 129.98L107.755 140.804M132.79 111.306L143.883 122.997M132.79 111.306C141.196 106.527 145.868 102.715 151.279 100.661M143.883 122.997L155.649 135.916M143.883 122.997L161.7 112.523M155.649 135.916L166.742 149.882M155.649 135.916L172.121 124.394M166.742 149.882L177.836 165.594M166.742 149.882L183.887 137.313M177.836 165.594L188.257 183.75M177.836 165.594L195.316 155.12M188.257 183.75L198.342 204.002M188.257 183.75L207.082 175.371M198.342 204.002L212.797 223.903M198.342 204.002L217.167 197.018M212.797 223.903L223.218 239.965M212.797 223.903L232.631 220.063M223.218 239.965L235.656 258.819M223.218 239.965L242.043 236.124M235.656 258.819L245.069 279.07M235.656 258.819L253.473 254.978M245.069 279.07L257.171 305.955M245.069 279.07L263.894 274.88M257.171 305.955L267.592 319.572M257.171 305.955L274.987 300.718M267.592 319.572L280.702 336.332M267.592 319.572L286.081 315.732M280.702 336.332L303.225 346.818M280.702 336.332L297.174 333.189M303.225 346.818C308.839 345.492 314.466 344.149 320.033 342.806M151.279 100.661C151.612 100.535 151.948 100.415 152.287 100.302C155.061 99.3803 160.579 97.8122 167.696 96.1122M151.279 100.661L161.7 112.523M161.7 112.523L172.121 124.394M161.7 112.523L177.836 107.285M172.121 124.394L183.887 137.313M172.121 124.394L188.257 119.855M183.887 137.313L195.316 155.12M183.887 137.313L201.367 132.774M195.316 155.12L207.082 175.371M195.316 155.12L212.125 146.74M207.082 175.371L217.167 197.018M207.082 175.371L223.218 166.293M217.167 197.018L232.631 220.063M217.167 197.018L237.337 191.432M232.631 220.063L242.043 236.124M232.631 220.063L248.766 214.127M242.043 236.124L253.473 254.978M242.043 236.124L257.843 232.632M253.473 254.978L263.894 274.88M253.473 254.978L267.592 251.487M263.894 274.88L274.987 300.718M263.894 274.88L280.702 271.389M274.987 300.718L286.081 315.732M274.987 300.718L291.123 295.131M286.081 315.732L297.174 333.189M286.081 315.732L301.88 311.542M297.174 333.189L320.033 342.806M297.174 333.189L313.31 328.65M320.033 342.806C331.728 339.986 343.158 337.174 353.65 334.554M336.169 338.078L313.31 328.65M313.31 328.65L301.88 311.542M313.31 328.65L331.799 325.159M301.88 311.542L291.123 295.131M301.88 311.542L320.033 308.399M291.123 295.131L280.702 271.389M291.123 295.131L309.276 289.545M280.702 271.389L267.592 251.487M280.702 271.389L298.855 266.85M267.592 251.487L257.843 232.632M267.592 251.487L287.425 249.392M257.843 232.632L248.766 214.127M257.843 232.632L275.996 231.236M248.766 214.127L237.337 191.432M248.766 214.127L263.894 210.286M237.337 191.432L223.218 166.293M237.337 191.432L252.464 188.639M223.218 166.293L212.125 146.74M223.218 166.293L241.371 162.452M212.125 146.74L201.367 132.774M212.125 146.74L229.269 143.248M201.367 132.774L188.257 119.855M201.367 132.774L219.184 128.848M188.257 119.855L177.836 107.285M188.257 119.855L208.091 116.712M177.836 107.285L167.696 96.1122M177.836 107.285L195.989 102.397M167.696 96.1122C173.208 94.7954 179.679 93.3993 186.576 92.1632M186.576 92.1632L195.989 102.397M186.576 92.1632C191.361 91.3056 196.351 90.5249 201.367 89.9011M195.989 102.397L208.091 116.712M195.989 102.397L215.15 100.661M208.091 116.712L219.184 128.848M208.091 116.712L223.89 110.777M219.184 128.848L229.269 143.248M219.184 128.848L235.992 122.997M229.269 143.248L241.371 162.452M229.269 143.248L247.758 137.313M241.371 162.452L252.464 188.639M241.371 162.452L258.851 157.215M252.464 188.639L263.894 210.286M252.464 188.639L269.609 178.513M263.894 210.286L275.996 231.236M263.894 210.286L279.357 203.303M275.996 231.236L287.425 249.392M275.996 231.236L291.123 223.903M287.425 249.392L298.855 266.85M287.425 249.392L304.234 243.107M298.855 266.85L309.276 289.545M298.855 266.85L314.655 261.612M309.276 289.545L320.033 308.399M309.276 289.545L326.084 281.514M320.033 308.399L331.799 325.159M320.033 308.399L337.85 302.464M331.799 325.159L353.65 334.554M331.799 325.159L349.616 321.318M353.65 334.554C359.851 333.005 365.724 331.523 371.13 330.147M371.13 330.147L349.616 321.318M371.13 330.147C378.042 328.387 384.19 326.799 389.283 325.463M349.616 321.318L337.85 302.464M349.616 321.318L366.088 316.779M337.85 302.464L326.084 281.514M337.85 302.464L356.003 295.131M326.084 281.514L314.655 261.612M326.084 281.514L344.909 279.07M314.655 261.612L304.234 243.107M314.655 261.612L334.152 254.978M304.234 243.107L291.123 223.903M304.234 243.107L322.723 238.568M291.123 223.903L279.357 203.303M291.123 223.903L312.638 221.808M279.357 203.303L269.609 178.513M279.357 203.303L297.846 199.812M269.609 178.513L258.851 157.215M269.609 178.513L286.753 172.228M258.851 157.215L247.758 137.313M258.851 157.215L275.996 153.723M247.758 137.313L235.992 122.997M247.758 137.313L264.566 133.472M235.992 122.997L223.89 110.777M235.992 122.997L253.137 119.157M223.89 110.777L215.15 100.661M223.89 110.777L243.388 107.285M215.15 100.661L201.367 89.9011M215.15 100.661L232.631 96.1122M201.367 89.9011C208.073 89.0672 214.826 88.5135 221.201 88.4308C221.874 88.422 222.547 88.4085 223.218 88.3903M223.218 88.3903L232.631 96.1122M223.218 88.3903C228 88.2611 232.73 87.8989 237.337 87.3851M232.631 96.1122L243.388 107.285M232.631 96.1122H248.766M243.388 107.285L253.137 119.157M243.388 107.285L258.851 102.397M253.137 119.157L264.566 133.472M253.137 119.157L270.617 113.919M264.566 133.472L275.996 153.723M264.566 133.472L284.064 127.536M275.996 153.723L286.753 172.228M275.996 153.723L294.485 149.882M286.753 172.228L297.846 199.812M286.753 172.228L306.251 164.198M297.846 199.812L312.638 221.808M297.846 199.812L318.016 193.178M312.638 221.808L322.723 238.568M312.638 221.808L329.782 214.127M322.723 238.568L334.152 254.978M322.723 238.568L337.85 231.236M334.152 254.978L344.909 279.07M334.152 254.978L349.616 249.392M344.909 279.07L355.533 294.451M344.909 279.07L360.709 273.833M356.003 295.131L366.088 316.779M356.003 295.131L355.533 294.451M366.088 316.779L389.283 325.463M366.088 316.779L383.568 310.494M389.283 325.463C397.397 323.334 402.832 321.845 404.41 321.318C405.139 321.075 405.927 320.722 406.764 320.277M406.764 320.277L383.568 310.494M406.764 320.277C416.24 315.235 432.054 298.266 441.052 292.452M383.568 310.494L372.139 289.545M383.568 310.494L420.883 266.85M383.568 310.494L431.976 282.106M372.139 289.545L360.709 273.833M372.139 289.545L409.789 253.931M372.139 289.545L355.533 294.451M360.709 273.833L349.616 249.392M360.709 273.833L397.015 232.632M349.616 249.392L337.85 231.236M349.616 249.392L383.568 215.175M337.85 231.236L329.782 214.127M337.85 231.236L368.777 201.907M329.782 214.127L318.016 193.178M329.782 214.127L357.359 184.233M318.016 193.178L306.251 164.198M318.016 193.178L351.633 175.371M306.251 164.198L294.485 149.882M306.251 164.198L342.892 139.058M294.485 149.882L284.064 127.536M294.485 149.882L329.782 131.028M284.064 127.536L270.617 113.919M284.064 127.536L317.68 117.411M270.617 113.919L258.851 102.397M270.617 113.919L308.268 104.492M258.851 102.397L248.766 96.1122M258.851 102.397L296.838 96.1122M248.766 96.1122L237.337 87.3851M248.766 96.1122L285.408 87.3851M237.337 87.3851C252.343 85.7112 266.043 82.4274 275.996 80.3404M275.996 80.3404C279.691 79.5655 282.87 78.9556 285.408 78.6544C288.82 78.2494 294.748 77.5507 301.544 76.7799M275.996 80.3404L285.408 87.3851M285.408 87.3851L296.838 96.1122M285.408 87.3851L312.301 85.2883M296.838 96.1122L308.268 104.492M296.838 96.1122L323.059 92.1632M308.268 104.492L317.68 117.411M308.268 104.492L333.48 100.661M317.68 117.411L329.782 131.028M317.68 117.411L345.582 110.078M329.782 131.028L342.892 139.058M329.782 131.028L357.684 122.997M342.892 139.058L351.633 175.371M342.892 139.058L368.777 128.848M351.633 175.371L357.359 184.233M351.633 175.371L381.887 162.452M368.777 201.907L383.568 215.175M368.777 201.907L405.083 189.686M368.777 201.907L357.359 184.233M383.568 215.175L397.015 232.632M383.568 215.175L412.921 203.303M397.015 232.632L409.789 253.931M397.015 232.632L423.572 221.808M409.789 253.931L420.883 266.85M409.789 253.931L435.338 243.107M420.883 266.85L432.984 281.514M420.883 266.85L448.112 258.819M432.984 281.514L441.052 292.452M432.984 281.514L431.976 282.106M441.052 292.452C441.52 292.15 441.968 291.878 442.397 291.64C445.872 289.706 456.975 286.954 469.962 284.208M469.962 284.208C485.117 281.004 502.837 277.808 514 275.928C510.828 272.245 506.624 267.244 502.04 261.612M469.962 284.208L458.869 271.389M458.869 271.389L448.112 258.819M458.869 271.389L431.976 282.106M458.869 271.389L502.04 261.612M448.112 258.819L435.338 243.107M448.112 258.819L489.882 246.249M435.338 243.107L423.572 221.808M435.338 243.107L478.367 230.524M423.572 221.808L463.196 203.303M423.572 221.808L412.921 203.303M405.083 189.686L393.317 175.371M405.083 189.686L412.921 203.303M405.083 189.686L446.612 175.371M393.317 175.371L381.887 162.452M393.317 175.371L357.359 184.233M393.317 175.371L432.648 160.635M381.887 162.452L368.777 128.848M381.887 162.452L424.01 149.882M368.777 128.848L357.684 122.997M368.777 128.848L411.682 126.14M357.684 122.997L345.582 110.078M357.684 122.997L398.737 111.824M345.582 110.078L333.48 100.661M345.582 110.078L390.292 104.923M333.48 100.661L323.059 92.1632M333.48 100.661L377.181 95.1138M323.059 92.1632L312.301 85.2883M323.059 92.1632L366.137 87.3851M312.301 85.2883L301.544 76.7799M312.301 85.2883L354.502 79.7018M301.544 76.7799C318.184 74.8925 340.028 72.5721 342.892 73.0679C343.931 73.2477 348.358 75.7889 354.502 79.7018M502.04 261.612C498.13 256.808 493.943 251.545 489.882 246.249M489.882 246.249C485.775 240.894 481.798 235.506 478.367 230.524M478.367 230.524C474.836 225.399 471.883 220.704 469.962 216.92C467.639 212.344 465.431 207.788 463.196 203.303M187.376 345.061C183.688 341.277 179.925 337.232 176.248 333.189M176.248 333.189L184.472 332.53M176.248 333.189C171.995 328.512 167.856 323.838 164.079 319.572M164.079 319.572C161.119 316.23 158.382 313.139 155.985 310.494C154.904 309.301 153.783 308.065 152.623 306.791M152.623 306.791C149.414 303.263 145.918 299.449 142.202 295.487M463.196 203.303C460.396 197.686 457.556 192.182 454.396 186.893M412.921 203.303L454.396 186.893M454.396 186.893C452.021 182.916 449.465 179.061 446.612 175.371M446.612 175.371C443.575 171.442 440.2 167.7 436.346 164.198C435.017 162.99 433.789 161.804 432.648 160.635M142.202 295.487C138.99 292.061 135.613 288.524 132.117 284.965M132.117 284.965C128.462 281.244 124.676 277.499 120.811 273.833M432.648 160.635C429.001 156.899 426.254 153.349 424.01 149.882M424.01 149.882C418.866 141.937 416.36 134.432 411.682 126.14M120.811 273.833C116.884 270.108 112.875 266.465 108.837 263.009M108.837 263.009C104.921 259.657 100.977 256.482 97.0537 253.582M411.682 126.14C411.291 125.447 410.885 124.749 410.461 124.045C408.563 120.889 404.278 116.593 398.737 111.824M398.737 111.824C396.156 109.604 393.303 107.281 390.292 104.923M97.0537 253.582C95.0634 252.11 93.0785 250.709 91.1054 249.392C89.5662 248.364 87.9939 247.312 86.3991 246.243M86.3991 246.243C82.1704 243.409 77.7835 240.457 73.4337 237.521M390.292 104.923C386.125 101.66 381.654 98.331 377.181 95.1138M377.181 95.1138C373.442 92.4245 369.702 89.8134 366.137 87.3851M129.88 168.388L119.237 155.12M73.4337 237.521C69.2597 234.703 65.1198 231.901 61.1868 229.233M61.1868 229.233C57.7396 226.896 54.4513 224.661 51.4381 222.611M119.237 155.12L107.755 140.804M366.137 87.3851C361.916 84.5101 357.94 81.8912 354.502 79.7018" stroke="#2AEF11" stroke-width="2"/>
<defs>
<radialGradient id="paint0_radial_3647_4305" cx="0" cy="0" r="1" gradientUnits="userSpaceOnUse" gradientTransform="translate(255.029 91.1643) rotate(88.8422) scale(261.551 636.072)">
<stop stop-color="#EC2311"/>
<stop offset="0.368169" stop-color="#F5EA1C"/>
<stop offset="0.536922" stop-color="#11F30B"/>
<stop offset="0.790442" stop-color="#009462"/>
<stop offset="1" stop-color="#0C23D4"/>
</radialGradient>
</defs>
</svg>
