<svg width="182" height="15" viewBox="0 0 182 15" fill="none" xmlns="http://www.w3.org/2000/svg">
<path opacity="0.5" d="M6.80469 13.3125C10.3125 13.3125 13 10.625 13 7.10938C13 3.58594 10.3203 0.90625 6.80469 0.90625C3.29688 0.90625 0.609375 3.59375 0.609375 7.10938C0.609375 10.6172 3.30469 13.3125 6.80469 13.3125ZM6.80469 12.2188C3.92188 12.2188 1.71094 10 1.71094 7.10938C1.71094 4.21094 3.91406 2 6.80469 2C9.70312 2 11.8984 4.20312 11.8984 7.10938C11.8984 10.0078 9.69531 12.2188 6.80469 12.2188ZM9.75781 6C9.55469 4.6875 8.42969 3.8125 6.9375 3.8125C5.05469 3.8125 3.85156 5.09375 3.85156 7.09375C3.85156 9.11719 5.05469 10.4062 6.94531 10.4062C8.46875 10.4062 9.5625 9.57031 9.75781 8.25781H8.67188C8.48438 9.00781 7.85156 9.4375 6.9375 9.4375C5.72656 9.4375 4.96094 8.53125 4.96094 7.09375C4.96094 5.67188 5.72656 4.78125 6.9375 4.78125C7.80469 4.78125 8.48438 5.25781 8.67188 6H9.75781ZM18.6725 3.90625H20.0319C20.0319 2.57031 20.9303 1.6875 22.2819 1.6875C23.61 1.6875 24.4147 2.57812 24.4147 3.77344C24.4147 4.76562 23.9928 5.35156 22.5553 6.90625L18.7428 11.0312V12H26.0397V10.7344H20.6959V10.6094L23.2584 7.96094C25.2897 5.85938 25.8522 4.92188 25.8522 3.625C25.8522 1.79688 24.3444 0.460938 22.3756 0.460938C20.2194 0.460938 18.6725 1.89844 18.6725 3.90625ZM31.8838 12.2656C34.415 12.2656 35.8681 10.125 35.8681 6.38281C35.8681 2.64844 34.3916 0.460938 31.8838 0.460938C29.3603 0.460938 27.8838 2.64062 27.8838 6.35938C27.8838 10.1094 29.3447 12.2656 31.8838 12.2656ZM31.8838 11.0391C30.2197 11.0391 29.2978 9.375 29.2978 6.35938C29.2978 3.38281 30.2353 1.69531 31.8838 1.69531C33.5322 1.69531 34.4541 3.36719 34.4541 6.35938C34.4541 9.38281 33.5478 11.0391 31.8838 11.0391ZM37.7825 3.90625H39.1419C39.1419 2.57031 40.0403 1.6875 41.3919 1.6875C42.72 1.6875 43.5247 2.57812 43.5247 3.77344C43.5247 4.76562 43.1028 5.35156 41.6653 6.90625L37.8528 11.0312V12H45.1497V10.7344H39.8059V10.6094L42.3684 7.96094C44.3997 5.85938 44.9622 4.92188 44.9622 3.625C44.9622 1.79688 43.4544 0.460938 41.4856 0.460938C39.3294 0.460938 37.7825 1.89844 37.7825 3.90625ZM47.1344 3.90625H48.4938C48.4938 2.57031 49.3922 1.6875 50.7438 1.6875C52.0719 1.6875 52.8766 2.57812 52.8766 3.77344C52.8766 4.76562 52.4547 5.35156 51.0172 6.90625L47.2047 11.0312V12H54.5016V10.7344H49.1578V10.6094L51.7203 7.96094C53.7516 5.85938 54.3141 4.92188 54.3141 3.625C54.3141 1.79688 52.8063 0.460938 50.8375 0.460938C48.6813 0.460938 47.1344 1.89844 47.1344 3.90625ZM62.3381 7.53906H65.1116L67.5256 12H69.1741L66.5647 7.32031C67.9787 6.875 68.8303 5.65625 68.8303 4.08594C68.8303 2.05469 67.4084 0.726562 65.2366 0.726562H60.9319V12H62.3381V7.53906ZM62.3381 1.97656H65.0491C66.5022 1.97656 67.3772 2.78125 67.3772 4.13281C67.3772 5.51562 66.5569 6.28906 65.1116 6.28906H62.3381V1.97656ZM76.2369 9.82031C75.8853 10.5625 75.1509 10.9609 74.065 10.9609C72.6353 10.9609 71.7056 9.90625 71.6353 8.24219V8.17969H77.69V7.66406C77.69 5.04688 76.3072 3.42969 74.0338 3.42969C71.7213 3.42969 70.2369 5.14844 70.2369 7.79688C70.2369 10.4609 71.6978 12.1484 74.0338 12.1484C75.8775 12.1484 77.19 11.2578 77.5806 9.82031H76.2369ZM74.0181 4.61719C75.3541 4.61719 76.2447 5.60156 76.2759 7.09375H71.6353C71.7369 5.60156 72.6744 4.61719 74.0181 4.61719ZM79.4794 12H80.8231V6.78125C80.8231 5.59375 81.6747 4.64062 82.7763 4.64062C83.8388 4.64062 84.5341 5.28125 84.5341 6.28125V12H85.8778V6.58594C85.8778 5.51562 86.6591 4.64062 87.8309 4.64062C89.0184 4.64062 89.6044 5.25 89.6044 6.49219V12H90.9481V6.17969C90.9481 4.41406 89.9872 3.42969 88.2684 3.42969C87.1044 3.42969 86.1434 4.01562 85.6903 4.90625H85.5653C85.1747 4.03125 84.3778 3.42969 83.2372 3.42969C82.1122 3.42969 81.2684 3.96875 80.8856 4.90625H80.7606V3.57812H79.4794V12ZM95.425 12.1484C96.55 12.1484 97.4719 11.6562 98.0188 10.7578H98.1438V12H99.425V6.23438C99.425 4.48438 98.2766 3.42969 96.2219 3.42969C94.425 3.42969 93.0969 4.32031 92.9172 5.67188H94.2766C94.4641 5.00781 95.1672 4.625 96.175 4.625C97.4328 4.625 98.0813 5.19531 98.0813 6.23438V7L95.6516 7.14844C93.6906 7.26562 92.5813 8.13281 92.5813 9.64062C92.5813 11.1797 93.7922 12.1484 95.425 12.1484ZM95.675 10.9688C94.6984 10.9688 93.9719 10.4688 93.9719 9.60938C93.9719 8.76562 94.5344 8.32031 95.8156 8.23438L98.0813 8.08594V8.85938C98.0813 10.0625 97.0578 10.9688 95.675 10.9688ZM105.691 3.42969C104.543 3.42969 103.535 4.01562 102.996 4.98438H102.871V3.57812H101.589V14.8125H102.933V10.7344H103.058C103.519 11.625 104.488 12.1484 105.691 12.1484C107.832 12.1484 109.23 10.4219 109.23 7.78906C109.23 5.14062 107.839 3.42969 105.691 3.42969ZM105.371 10.9375C103.855 10.9375 102.894 9.71875 102.894 7.78906C102.894 5.85156 103.855 4.64062 105.378 4.64062C106.918 4.64062 107.839 5.82031 107.839 7.78906C107.839 9.75781 106.918 10.9375 105.371 10.9375ZM113.965 12V1.99219H117.598V0.726562H108.926V1.99219H112.558V12H113.965ZM121.176 12.1484C123.574 12.1484 125.059 10.4922 125.059 7.78906C125.059 5.07812 123.574 3.42969 121.176 3.42969C118.777 3.42969 117.293 5.07812 117.293 7.78906C117.293 10.4922 118.777 12.1484 121.176 12.1484ZM121.176 10.9375C119.582 10.9375 118.684 9.78125 118.684 7.78906C118.684 5.78906 119.582 4.64062 121.176 4.64062C122.77 4.64062 123.668 5.78906 123.668 7.78906C123.668 9.78125 122.77 10.9375 121.176 10.9375ZM130.309 12.1484C132.707 12.1484 134.192 10.4922 134.192 7.78906C134.192 5.07812 132.707 3.42969 130.309 3.42969C127.911 3.42969 126.426 5.07812 126.426 7.78906C126.426 10.4922 127.911 12.1484 130.309 12.1484ZM130.309 10.9375C128.715 10.9375 127.817 9.78125 127.817 7.78906C127.817 5.78906 128.715 4.64062 130.309 4.64062C131.903 4.64062 132.801 5.78906 132.801 7.78906C132.801 9.78125 131.903 10.9375 130.309 10.9375ZM136.059 12H137.403V0.234375H136.059V12ZM139.497 5.88281C139.497 7.10156 140.216 7.78125 141.794 8.16406L143.239 8.51562C144.138 8.73438 144.575 9.125 144.575 9.70312C144.575 10.4766 143.763 11.0156 142.63 11.0156C141.552 11.0156 140.88 10.5625 140.653 9.85156H139.271C139.419 11.25 140.708 12.1484 142.583 12.1484C144.497 12.1484 145.958 11.1094 145.958 9.60156C145.958 8.39062 145.193 7.70312 143.607 7.32031L142.31 7.00781C141.318 6.76562 140.849 6.40625 140.849 5.82812C140.849 5.07812 141.63 4.57031 142.63 4.57031C143.646 4.57031 144.302 5.01562 144.482 5.6875H145.81C145.63 4.30469 144.403 3.42969 142.638 3.42969C140.849 3.42969 139.497 4.48438 139.497 5.88281ZM148.857 12.0781C149.419 12.0781 149.872 11.6172 149.872 11.0625C149.872 10.5 149.419 10.0469 148.857 10.0469C148.302 10.0469 147.841 10.5 147.841 11.0625C147.841 11.6172 148.302 12.0781 148.857 12.0781ZM158.834 6.15625C158.599 4.65625 157.349 3.42969 155.303 3.42969C152.943 3.42969 151.443 5.13281 151.443 7.75781C151.443 10.4375 152.951 12.1484 155.31 12.1484C157.334 12.1484 158.592 11.0078 158.834 9.46094H157.474C157.224 10.4141 156.435 10.9375 155.303 10.9375C153.803 10.9375 152.834 9.70312 152.834 7.75781C152.834 5.85156 153.787 4.64062 155.303 4.64062C156.513 4.64062 157.256 5.32031 157.474 6.15625H158.834ZM163.959 12.1484C166.357 12.1484 167.842 10.4922 167.842 7.78906C167.842 5.07812 166.357 3.42969 163.959 3.42969C161.561 3.42969 160.076 5.07812 160.076 7.78906C160.076 10.4922 161.561 12.1484 163.959 12.1484ZM163.959 10.9375C162.365 10.9375 161.467 9.78125 161.467 7.78906C161.467 5.78906 162.365 4.64062 163.959 4.64062C165.553 4.64062 166.451 5.78906 166.451 7.78906C166.451 9.78125 165.553 10.9375 163.959 10.9375ZM169.631 12H170.975V6.78125C170.975 5.59375 171.827 4.64062 172.928 4.64062C173.991 4.64062 174.686 5.28125 174.686 6.28125V12H176.03V6.58594C176.03 5.51562 176.811 4.64062 177.983 4.64062C179.17 4.64062 179.756 5.25 179.756 6.49219V12H181.1V6.17969C181.1 4.41406 180.139 3.42969 178.42 3.42969C177.256 3.42969 176.295 4.01562 175.842 4.90625H175.717C175.327 4.03125 174.53 3.42969 173.389 3.42969C172.264 3.42969 171.42 3.96875 171.038 4.90625H170.913V3.57812H169.631V12Z" fill="white"/>
</svg>
