<svg width="16" height="13" viewBox="0 0 16 13" fill="none" xmlns="http://www.w3.org/2000/svg">
<path d="M13.3586 9.73717C15.0596 8.21917 15.9996 6.49917 15.9996 6.49917C15.9996 6.49917 12.9996 0.999172 7.99963 0.999172C7.03923 1.00248 6.08969 1.2026 5.20963 1.58717L5.97963 2.35817C6.62707 2.12233 7.31058 2.00085 7.99963 1.99917C10.1196 1.99917 11.8786 3.16717 13.1676 4.45617C13.788 5.07986 14.3441 5.7643 14.8276 6.49917C14.7696 6.58617 14.7056 6.68217 14.6326 6.78717C14.2976 7.26717 13.8026 7.90717 13.1676 8.54217C13.0026 8.70717 12.8306 8.87017 12.6506 9.02817L13.3586 9.73717Z" fill="#6C757D"/>
<path d="M11.2966 7.67517C11.5198 7.05101 11.5611 6.37632 11.4158 5.72959C11.2705 5.08287 10.9445 4.4907 10.4758 4.02199C10.0071 3.55329 9.41494 3.22731 8.76821 3.082C8.12149 2.93669 7.44679 2.97802 6.82263 3.20117L7.64563 4.02417C8.02994 3.96916 8.42178 4.00442 8.7901 4.12714C9.15843 4.24985 9.4931 4.45667 9.76762 4.73118C10.0421 5.0057 10.249 5.34038 10.3717 5.7087C10.4944 6.07702 10.5296 6.46886 10.4746 6.85317L11.2966 7.67517ZM8.35363 8.97417L9.17563 9.79617C8.55148 10.0193 7.87678 10.0607 7.23005 9.91534C6.58333 9.77003 5.99116 9.44406 5.52245 8.97535C5.05375 8.50665 4.72777 7.91448 4.58246 7.26775C4.43715 6.62102 4.47848 5.94633 4.70163 5.32217L5.52463 6.14517C5.46963 6.52948 5.50488 6.92132 5.6276 7.28964C5.75032 7.65796 5.95713 7.99264 6.23165 8.26716C6.50616 8.54168 6.84084 8.74849 7.20916 8.87121C7.57748 8.99393 7.96932 9.02918 8.35363 8.97417Z" fill="#6C757D"/>
<path d="M3.34963 3.96917C3.16963 4.12917 2.99663 4.29117 2.83163 4.45617C2.21128 5.07986 1.65515 5.7643 1.17163 6.49917L1.36663 6.78717C1.70163 7.26717 2.19663 7.90717 2.83163 8.54217C4.12063 9.83117 5.88063 10.9992 7.99963 10.9992C8.71563 10.9992 9.38963 10.8662 10.0196 10.6392L10.7896 11.4112C9.90957 11.7957 8.96004 11.9958 7.99963 11.9992C2.99963 11.9992 -0.000366211 6.49917 -0.000366211 6.49917C-0.000366211 6.49917 0.938634 4.77817 2.64063 3.26117L3.34863 3.97017L3.34963 3.96917ZM13.6456 12.8532L1.64563 0.853172L2.35363 0.145172L14.3536 12.1452L13.6456 12.8532Z" fill="#6C757D"/>
</svg>
