<svg width="131" height="24" viewBox="0 0 131 24" fill="none" xmlns="http://www.w3.org/2000/svg">
<path d="M9.952 18.288L7.864 13.728C7.336 12.592 6.672 11.784 5.872 11.304C5.072 10.824 4.048 10.584 2.8 10.584H2.44V18H0.16V1.248C1.008 1.168 1.816 1.112 2.584 1.08C3.368 1.032 4.2 1.008 5.08 1.008C7.128 1.008 8.664 1.424 9.688 2.256C10.728 3.088 11.248 4.16 11.248 5.472C11.248 6.64 10.896 7.584 10.192 8.304C9.504 9.008 8.504 9.536 7.192 9.888C7.624 10.08 8.008 10.312 8.344 10.584C8.68 10.84 9 11.192 9.304 11.64C9.624 12.072 9.944 12.64 10.264 13.344L12.088 17.28L9.952 18.288ZM2.44 8.664H5.08C6.232 8.664 7.168 8.408 7.888 7.896C8.608 7.384 8.968 6.648 8.968 5.688C8.968 4.888 8.632 4.232 7.96 3.72C7.288 3.192 6.328 2.928 5.08 2.928C4.536 2.928 4.048 2.936 3.616 2.952C3.184 2.968 2.792 2.992 2.44 3.024V8.664ZM19.4045 18.288C17.6125 18.288 16.1885 17.72 15.1325 16.584C14.0925 15.432 13.5725 13.824 13.5725 11.76C13.5725 10.512 13.8045 9.4 14.2685 8.424C14.7485 7.432 15.4125 6.656 16.2605 6.096C17.1085 5.52 18.0925 5.232 19.2125 5.232C20.4125 5.232 21.4045 5.496 22.1885 6.024C22.9885 6.536 23.5885 7.232 23.9885 8.112C24.3885 8.992 24.5885 9.96 24.5885 11.016C24.5885 11.576 24.5645 12.12 24.5165 12.648H15.7805C15.9245 13.816 16.3325 14.728 17.0045 15.384C17.6765 16.04 18.5645 16.368 19.6685 16.368C20.3885 16.368 21.0365 16.296 21.6125 16.152C22.1885 15.992 22.7405 15.792 23.2685 15.552L23.7725 17.4C23.1965 17.656 22.5485 17.864 21.8285 18.024C21.1085 18.2 20.3005 18.288 19.4045 18.288ZM15.7565 10.896H22.5965C22.5965 9.68 22.2925 8.744 21.6845 8.088C21.0765 7.432 20.2365 7.104 19.1645 7.104C18.2365 7.104 17.4685 7.432 16.8605 8.088C16.2525 8.728 15.8845 9.664 15.7565 10.896ZM27.1472 18V5.52H29.2352V7.608C29.6832 6.936 30.2512 6.376 30.9392 5.928C31.6272 5.464 32.4112 5.232 33.2912 5.232C34.2832 5.232 35.0912 5.472 35.7152 5.952C36.3552 6.432 36.8032 7.072 37.0592 7.872C37.5552 7.136 38.1392 6.512 38.8112 6C39.4992 5.488 40.3472 5.232 41.3552 5.232C42.7152 5.232 43.7232 5.664 44.3792 6.528C45.0512 7.376 45.3872 8.488 45.3872 9.864V18H43.2272V10.032C43.2272 9.168 43.0272 8.472 42.6272 7.944C42.2272 7.4 41.6752 7.128 40.9712 7.128C40.2512 7.128 39.5792 7.4 38.9552 7.944C38.3472 8.472 37.8112 9.096 37.3472 9.816V18H35.1872V10.032C35.1872 9.168 34.9872 8.472 34.5872 7.944C34.1872 7.4 33.6352 7.128 32.9312 7.128C32.2272 7.128 31.5632 7.392 30.9392 7.92C30.3152 8.432 29.7712 9.04 29.3072 9.744V18H27.1472ZM53.5641 18.288C52.5241 18.288 51.5801 18.024 50.7321 17.496C49.8841 16.968 49.2041 16.224 48.6921 15.264C48.1961 14.288 47.9481 13.144 47.9481 11.832C47.9481 10.584 48.1961 9.464 48.6921 8.472C49.2041 7.48 49.9001 6.696 50.7801 6.12C51.6761 5.528 52.7001 5.232 53.8521 5.232C54.5721 5.232 55.2201 5.36 55.7961 5.616C56.3881 5.856 56.9001 6.16 57.3321 6.528V5.52H59.3001V14.976C59.3001 15.584 59.4441 15.984 59.7321 16.176C60.0361 16.352 60.3641 16.44 60.7161 16.44L60.2601 18.12C58.7241 18.12 57.7961 17.496 57.4761 16.248C57.1081 16.76 56.6041 17.232 55.9641 17.664C55.3401 18.08 54.5401 18.288 53.5641 18.288ZM54.0441 16.368C54.6521 16.368 55.2281 16.224 55.7721 15.936C56.3161 15.632 56.7721 15.256 57.1401 14.808V8.112C56.7081 7.808 56.2281 7.568 55.7001 7.392C55.1881 7.2 54.6441 7.104 54.0681 7.104C53.3001 7.104 52.6201 7.304 52.0281 7.704C51.4521 8.088 50.9961 8.632 50.6601 9.336C50.3241 10.024 50.1561 10.832 50.1561 11.76C50.1561 12.656 50.3241 13.456 50.6601 14.16C50.9961 14.848 51.4601 15.392 52.0521 15.792C52.6441 16.176 53.3081 16.368 54.0441 16.368ZM63.3851 23.28V8.712C63.3851 8.168 63.2491 7.784 62.9771 7.56C62.7211 7.32 62.3851 7.2 61.9691 7.2L62.4251 5.52C63.8971 5.52 64.8171 6.104 65.1851 7.272C65.3451 7.032 65.6011 6.752 65.9531 6.432C66.3211 6.112 66.7691 5.832 67.2971 5.592C67.8411 5.352 68.4571 5.232 69.1451 5.232C70.1051 5.232 71.0011 5.488 71.8331 6C72.6811 6.496 73.3611 7.224 73.8731 8.184C74.3851 9.128 74.6411 10.28 74.6411 11.64C74.6411 12.968 74.3851 14.136 73.8731 15.144C73.3611 16.136 72.6891 16.912 71.8571 17.472C71.0411 18.016 70.1531 18.288 69.1931 18.288C68.4571 18.288 67.7691 18.144 67.1291 17.856C66.4891 17.552 65.9611 17.208 65.5451 16.824V23.28H63.3851ZM68.7611 16.368C69.8491 16.368 70.7291 15.944 71.4011 15.096C72.0891 14.232 72.4331 13.104 72.4331 11.712C72.4331 10.752 72.2571 9.928 71.9051 9.24C71.5691 8.552 71.1131 8.024 70.5371 7.656C69.9771 7.288 69.3531 7.104 68.6651 7.104C67.9771 7.104 67.3531 7.28 66.7931 7.632C66.2491 7.968 65.8331 8.336 65.5451 8.736V14.88C65.9611 15.312 66.4411 15.672 66.9851 15.96C67.5291 16.232 68.1211 16.368 68.7611 16.368ZM78.7688 18V3.216H73.6088V1.2H86.2088V3.216H81.0488V18H78.7688ZM91.2638 18.288C90.0798 18.288 89.0158 18.016 88.0718 17.472C87.1278 16.912 86.3838 16.144 85.8398 15.168C85.3118 14.176 85.0478 13.04 85.0478 11.76C85.0478 10.416 85.3198 9.256 85.8638 8.28C86.4078 7.304 87.1518 6.552 88.0958 6.024C89.0398 5.496 90.0958 5.232 91.2638 5.232C92.4318 5.232 93.4798 5.496 94.4078 6.024C95.3518 6.552 96.0958 7.304 96.6398 8.28C97.1998 9.24 97.4798 10.384 97.4798 11.712C97.4798 13.04 97.2078 14.2 96.6638 15.192C96.1198 16.168 95.3758 16.928 94.4318 17.472C93.5038 18.016 92.4478 18.288 91.2638 18.288ZM91.2638 16.368C92.5278 16.368 93.5118 15.944 94.2158 15.096C94.9198 14.232 95.2718 13.12 95.2718 11.76C95.2718 10.928 95.0958 10.168 94.7438 9.48C94.3918 8.776 93.9118 8.216 93.3038 7.8C92.7118 7.368 92.0318 7.152 91.2638 7.152C89.9998 7.152 89.0158 7.568 88.3118 8.4C87.6078 9.232 87.2558 10.336 87.2558 11.712C87.2558 12.544 87.4318 13.32 87.7838 14.04C88.1358 14.744 88.6078 15.312 89.1998 15.744C89.8078 16.16 90.4958 16.368 91.2638 16.368ZM105.288 18.288C104.104 18.288 103.04 18.016 102.096 17.472C101.152 16.912 100.408 16.144 99.8636 15.168C99.3356 14.176 99.0716 13.04 99.0716 11.76C99.0716 10.416 99.3436 9.256 99.8876 8.28C100.432 7.304 101.176 6.552 102.12 6.024C103.064 5.496 104.12 5.232 105.288 5.232C106.456 5.232 107.504 5.496 108.432 6.024C109.376 6.552 110.12 7.304 110.664 8.28C111.224 9.24 111.504 10.384 111.504 11.712C111.504 13.04 111.232 14.2 110.688 15.192C110.144 16.168 109.4 16.928 108.456 17.472C107.528 18.016 106.472 18.288 105.288 18.288ZM105.288 16.368C106.552 16.368 107.536 15.944 108.24 15.096C108.944 14.232 109.296 13.12 109.296 11.76C109.296 10.928 109.12 10.168 108.768 9.48C108.416 8.776 107.936 8.216 107.328 7.8C106.736 7.368 106.056 7.152 105.288 7.152C104.024 7.152 103.04 7.568 102.336 8.4C101.632 9.232 101.28 10.336 101.28 11.712C101.28 12.544 101.456 13.32 101.808 14.04C102.16 14.744 102.632 15.312 103.224 15.744C103.832 16.16 104.52 16.368 105.288 16.368ZM117.847 18.288C117.111 18.288 116.447 18.152 115.855 17.88C115.263 17.592 114.791 17.136 114.439 16.512C114.103 15.888 113.935 15.08 113.935 14.088V0.24H116.095V13.872C116.095 14.736 116.271 15.376 116.623 15.792C116.991 16.208 117.495 16.416 118.135 16.416C118.439 16.416 118.735 16.384 119.023 16.32C119.327 16.24 119.583 16.152 119.791 16.056L120.319 17.808C120.031 17.936 119.671 18.048 119.239 18.144C118.823 18.24 118.359 18.288 117.847 18.288ZM125.392 18.288C124.448 18.288 123.592 18.168 122.824 17.928C122.072 17.688 121.448 17.376 120.952 16.992L121.864 15.192C122.28 15.544 122.8 15.84 123.424 16.08C124.064 16.304 124.744 16.416 125.464 16.416C126.36 16.416 127.032 16.272 127.48 15.984C127.944 15.68 128.176 15.296 128.176 14.832C128.176 14.496 128.088 14.2 127.912 13.944C127.752 13.688 127.448 13.44 127 13.2C126.552 12.944 125.904 12.672 125.056 12.384C123.888 11.984 123.008 11.512 122.416 10.968C121.84 10.408 121.552 9.64 121.552 8.664C121.552 7.704 121.968 6.896 122.8 6.24C123.648 5.568 124.816 5.232 126.304 5.232C127.104 5.232 127.816 5.32 128.44 5.496C129.064 5.656 129.624 5.864 130.12 6.12L129.52 7.896C129.088 7.64 128.592 7.432 128.032 7.272C127.488 7.112 126.88 7.032 126.208 7.032C125.376 7.032 124.744 7.2 124.312 7.536C123.88 7.872 123.664 8.24 123.664 8.64C123.664 9.024 123.832 9.352 124.168 9.624C124.504 9.896 125.16 10.192 126.136 10.512C127.72 11.04 128.824 11.624 129.448 12.264C130.072 12.904 130.384 13.704 130.384 14.664C130.384 15.784 129.928 16.672 129.016 17.328C128.12 17.968 126.912 18.288 125.392 18.288Z" fill="white"/>
</svg>
